<mxfile host="app.diagrams.net" modified="2023-07-30T19:25:46.067Z" agent="Mozilla/5.0 (Windows NT 10.0; Win64; x64) AppleWebKit/537.36 (KHTML, like Gecko) Chrome/115.0.0.0 Safari/537.36 Edg/115.0.1901.188" etag="eoQZ0Zxhn9MxXRhy4w-U" version="21.6.6" type="device">
  <diagram id="apCXUo-29JEw8KoYXHWt" name="Page-2">
    <mxGraphModel dx="1266" dy="-354" grid="1" gridSize="10" guides="1" tooltips="1" connect="1" arrows="1" fold="1" page="1" pageScale="1" pageWidth="850" pageHeight="1100" math="0" shadow="0">
      <root>
        <mxCell id="0" />
        <mxCell id="1" parent="0" />
        <mxCell id="Vo5iDvXB8LepjuiFoj2y-1" value="Backend" style="shape=umlLifeline;perimeter=lifelinePerimeter;whiteSpace=wrap;html=1;container=0;collapsible=0;recursiveResize=0;outlineConnect=0;rounded=1;shadow=0;comic=0;labelBackgroundColor=none;strokeWidth=1;fontFamily=Verdana;fontSize=12;align=center;" parent="1" vertex="1">
          <mxGeometry x="870" y="1300" width="100" height="520" as="geometry" />
        </mxCell>
        <mxCell id="Vo5iDvXB8LepjuiFoj2y-2" value="Base de datos" style="shape=umlLifeline;perimeter=lifelinePerimeter;whiteSpace=wrap;html=1;container=0;collapsible=0;recursiveResize=0;outlineConnect=0;rounded=1;shadow=0;comic=0;labelBackgroundColor=none;strokeWidth=1;fontFamily=Verdana;fontSize=12;align=center;" parent="1" vertex="1">
          <mxGeometry x="1070" y="1300" width="100" height="520" as="geometry" />
        </mxCell>
        <mxCell id="Vo5iDvXB8LepjuiFoj2y-3" value="Usuario" style="shape=umlLifeline;perimeter=lifelinePerimeter;whiteSpace=wrap;html=1;container=0;collapsible=0;recursiveResize=0;outlineConnect=0;rounded=1;shadow=0;comic=0;labelBackgroundColor=none;strokeWidth=1;fontFamily=Verdana;fontSize=12;align=center;" parent="1" vertex="1">
          <mxGeometry x="480" y="1300" width="120" height="520" as="geometry" />
        </mxCell>
        <mxCell id="Vo5iDvXB8LepjuiFoj2y-4" value="Frontend" style="shape=umlLifeline;perimeter=lifelinePerimeter;whiteSpace=wrap;html=1;container=0;collapsible=0;recursiveResize=0;outlineConnect=0;rounded=1;shadow=0;comic=0;labelBackgroundColor=none;strokeWidth=1;fontFamily=Verdana;fontSize=12;align=center;" parent="1" vertex="1">
          <mxGeometry x="685.13" y="1300" width="100" height="520" as="geometry" />
        </mxCell>
        <mxCell id="Vo5iDvXB8LepjuiFoj2y-5" value="" style="html=1;points=[];perimeter=orthogonalPerimeter;rounded=0;shadow=0;comic=0;labelBackgroundColor=none;strokeWidth=1;fontFamily=Verdana;fontSize=12;align=center;" parent="1" vertex="1">
          <mxGeometry x="535" y="1390" width="10" height="400" as="geometry" />
        </mxCell>
        <mxCell id="Vo5iDvXB8LepjuiFoj2y-14" value="Ingresar a aplicaci칩n web" style="html=1;verticalAlign=bottom;endArrow=block;entryX=0;entryY=0;labelBackgroundColor=none;fontFamily=Verdana;fontSize=11;edgeStyle=elbowEdgeStyle;elbow=vertical;" parent="1" target="Vo5iDvXB8LepjuiFoj2y-19" edge="1">
          <mxGeometry x="-0.0061" relative="1" as="geometry">
            <mxPoint x="545" y="1397" as="sourcePoint" />
            <mxPoint as="offset" />
          </mxGeometry>
        </mxCell>
        <mxCell id="Vo5iDvXB8LepjuiFoj2y-17" style="edgeStyle=orthogonalEdgeStyle;rounded=0;orthogonalLoop=1;jettySize=auto;html=1;entryX=1.034;entryY=0.449;entryDx=0;entryDy=0;entryPerimeter=0;dashed=1;" parent="1" source="Vo5iDvXB8LepjuiFoj2y-19" target="Vo5iDvXB8LepjuiFoj2y-5" edge="1">
          <mxGeometry relative="1" as="geometry">
            <Array as="points">
              <mxPoint x="650" y="1570" />
            </Array>
            <mxPoint x="570" y="1570" as="targetPoint" />
          </mxGeometry>
        </mxCell>
        <mxCell id="Vo5iDvXB8LepjuiFoj2y-18" value="Mostrar formulario de Log In" style="edgeLabel;html=1;align=center;verticalAlign=middle;resizable=0;points=[];" parent="Vo5iDvXB8LepjuiFoj2y-17" vertex="1" connectable="0">
          <mxGeometry x="0.2258" y="3" relative="1" as="geometry">
            <mxPoint x="19" y="-23" as="offset" />
          </mxGeometry>
        </mxCell>
        <mxCell id="Vo5iDvXB8LepjuiFoj2y-19" value="" style="html=1;points=[];perimeter=orthogonalPerimeter;rounded=0;shadow=0;comic=0;labelBackgroundColor=none;strokeWidth=1;fontFamily=Verdana;fontSize=12;align=center;" parent="1" vertex="1">
          <mxGeometry x="730.13" y="1397" width="10" height="173" as="geometry" />
        </mxCell>
        <mxCell id="Vo5iDvXB8LepjuiFoj2y-21" style="edgeStyle=orthogonalEdgeStyle;rounded=0;orthogonalLoop=1;jettySize=auto;html=1;" parent="1" source="Vo5iDvXB8LepjuiFoj2y-25" target="Vo5iDvXB8LepjuiFoj2y-28" edge="1">
          <mxGeometry relative="1" as="geometry">
            <Array as="points">
              <mxPoint x="1020" y="1690" />
              <mxPoint x="1020" y="1690" />
            </Array>
          </mxGeometry>
        </mxCell>
        <mxCell id="Vo5iDvXB8LepjuiFoj2y-22" value="Se compara los datos existentes&lt;br&gt;en la base de datos" style="edgeLabel;html=1;align=center;verticalAlign=middle;resizable=0;points=[];" parent="Vo5iDvXB8LepjuiFoj2y-21" vertex="1" connectable="0">
          <mxGeometry x="-0.0632" relative="1" as="geometry">
            <mxPoint x="6" y="-15" as="offset" />
          </mxGeometry>
        </mxCell>
        <mxCell id="Vo5iDvXB8LepjuiFoj2y-23" style="edgeStyle=orthogonalEdgeStyle;rounded=0;orthogonalLoop=1;jettySize=auto;html=1;dashed=1;" parent="1" source="Vo5iDvXB8LepjuiFoj2y-25" target="Vo5iDvXB8LepjuiFoj2y-34" edge="1">
          <mxGeometry relative="1" as="geometry">
            <Array as="points">
              <mxPoint x="860" y="1760" />
              <mxPoint x="860" y="1760" />
            </Array>
          </mxGeometry>
        </mxCell>
        <mxCell id="Vo5iDvXB8LepjuiFoj2y-24" value="Enviar cookie de log in&amp;nbsp;&lt;br&gt;o c칩digo 401" style="edgeLabel;html=1;align=center;verticalAlign=middle;resizable=0;points=[];" parent="Vo5iDvXB8LepjuiFoj2y-23" vertex="1" connectable="0">
          <mxGeometry x="-0.0183" y="1" relative="1" as="geometry">
            <mxPoint y="-21" as="offset" />
          </mxGeometry>
        </mxCell>
        <mxCell id="Vo5iDvXB8LepjuiFoj2y-25" value="" style="html=1;points=[];perimeter=orthogonalPerimeter;rounded=0;shadow=0;comic=0;labelBackgroundColor=none;strokeWidth=1;fontFamily=Verdana;fontSize=12;align=center;" parent="1" vertex="1">
          <mxGeometry x="915" y="1650" width="10" height="110" as="geometry" />
        </mxCell>
        <mxCell id="Vo5iDvXB8LepjuiFoj2y-26" style="edgeStyle=orthogonalEdgeStyle;rounded=0;orthogonalLoop=1;jettySize=auto;html=1;dashed=1;" parent="1" source="Vo5iDvXB8LepjuiFoj2y-28" target="Vo5iDvXB8LepjuiFoj2y-25" edge="1">
          <mxGeometry relative="1" as="geometry">
            <Array as="points">
              <mxPoint x="1070" y="1740" />
              <mxPoint x="1070" y="1740" />
            </Array>
          </mxGeometry>
        </mxCell>
        <mxCell id="Vo5iDvXB8LepjuiFoj2y-27" value="Se encuentra o no al usuario" style="edgeLabel;html=1;align=center;verticalAlign=middle;resizable=0;points=[];" parent="Vo5iDvXB8LepjuiFoj2y-26" vertex="1" connectable="0">
          <mxGeometry x="-0.0211" y="3" relative="1" as="geometry">
            <mxPoint y="-13" as="offset" />
          </mxGeometry>
        </mxCell>
        <mxCell id="Vo5iDvXB8LepjuiFoj2y-28" value="" style="html=1;points=[];perimeter=orthogonalPerimeter;rounded=0;shadow=0;comic=0;labelBackgroundColor=none;strokeWidth=1;fontFamily=Verdana;fontSize=12;align=center;" parent="1" vertex="1">
          <mxGeometry x="1115" y="1690" width="10" height="50" as="geometry" />
        </mxCell>
        <mxCell id="Vo5iDvXB8LepjuiFoj2y-29" value="Se ingresan los&lt;br&gt;datos de log in" style="html=1;verticalAlign=bottom;endArrow=block;entryX=0;entryY=0;labelBackgroundColor=none;fontFamily=Verdana;fontSize=11;edgeStyle=elbowEdgeStyle;elbow=vertical;" parent="1" target="Vo5iDvXB8LepjuiFoj2y-34" edge="1">
          <mxGeometry x="-0.0061" relative="1" as="geometry">
            <mxPoint x="545" y="1607" as="sourcePoint" />
            <mxPoint as="offset" />
          </mxGeometry>
        </mxCell>
        <mxCell id="Vo5iDvXB8LepjuiFoj2y-30" style="edgeStyle=orthogonalEdgeStyle;rounded=0;orthogonalLoop=1;jettySize=auto;html=1;" parent="1" source="Vo5iDvXB8LepjuiFoj2y-34" target="Vo5iDvXB8LepjuiFoj2y-25" edge="1">
          <mxGeometry relative="1" as="geometry">
            <Array as="points">
              <mxPoint x="830" y="1650" />
              <mxPoint x="830" y="1650" />
            </Array>
          </mxGeometry>
        </mxCell>
        <mxCell id="Vo5iDvXB8LepjuiFoj2y-31" value="Se validan los datos ingresados" style="edgeLabel;html=1;align=center;verticalAlign=middle;resizable=0;points=[];" parent="Vo5iDvXB8LepjuiFoj2y-30" vertex="1" connectable="0">
          <mxGeometry x="0.1308" y="1" relative="1" as="geometry">
            <mxPoint x="-9" y="-9" as="offset" />
          </mxGeometry>
        </mxCell>
        <mxCell id="Vo5iDvXB8LepjuiFoj2y-32" style="edgeStyle=orthogonalEdgeStyle;rounded=0;orthogonalLoop=1;jettySize=auto;html=1;dashed=1;" parent="1" source="Vo5iDvXB8LepjuiFoj2y-34" edge="1">
          <mxGeometry relative="1" as="geometry">
            <Array as="points">
              <mxPoint x="650" y="1780" />
              <mxPoint x="650" y="1780" />
            </Array>
            <mxPoint x="545" y="1780" as="targetPoint" />
          </mxGeometry>
        </mxCell>
        <mxCell id="Vo5iDvXB8LepjuiFoj2y-33" value="Mostrar p치gina de inicio&lt;br&gt;de la aplicaci칩n o datos&lt;br&gt;incorrectos" style="edgeLabel;html=1;align=center;verticalAlign=middle;resizable=0;points=[];" parent="Vo5iDvXB8LepjuiFoj2y-32" vertex="1" connectable="0">
          <mxGeometry x="0.2258" y="3" relative="1" as="geometry">
            <mxPoint x="19" y="-25" as="offset" />
          </mxGeometry>
        </mxCell>
        <mxCell id="Vo5iDvXB8LepjuiFoj2y-34" value="" style="html=1;points=[];perimeter=orthogonalPerimeter;rounded=0;shadow=0;comic=0;labelBackgroundColor=none;strokeWidth=1;fontFamily=Verdana;fontSize=12;align=center;" parent="1" vertex="1">
          <mxGeometry x="730.13" y="1607" width="10" height="173" as="geometry" />
        </mxCell>
      </root>
    </mxGraphModel>
  </diagram>
</mxfile>
